<?xml version="1.0" encoding="UTF-8"?>
<svg xmlns="http://www.w3.org/2000/svg" viewBox="0 0 626 496" width="626" height="496" font-family="Helvetica, Arial, sans-serif"><g class="wire"><path class="line" d="M 54 20 L 574 20" fill="none" stroke="#656d76" stroke-width="1.2" stroke-dasharray="1 2"/><path class="head" d="" fill="#656d76"/><text x="574" y="16" fill="#656d76" font-size="10" text-anchor="end">shared supply</text></g><g class="wire"><path class="line" d="M 105.7 20 L 105.7 30" fill="none" stroke="#656d76" stroke-width="1.2" stroke-dasharray="1 2"/><path class="head" d="" fill="#656d76"/></g><g class="wire"><path class="line" d="M 426.6 20 L 426.6 30" fill="none" stroke="#656d76" stroke-width="1.2" stroke-dasharray="1 2"/><path class="head" d="" fill="#656d76"/></g><g class="wire"><path class="line" d="M 207.18 20 L 207.18 30" fill="none" stroke="#656d76" stroke-width="1.2" stroke-dasharray="1 2"/><path class="head" d="" fill="#656d76"/></g><g class="wire"><path class="line" d="M 313.39 20 L 313.39 30" fill="none" stroke="#656d76" stroke-width="1.2" stroke-dasharray="1 2"/><path class="head" d="" fill="#656d76"/></g><g class="wire"><path class="line" d="M 528.68 20 L 528.68 30" fill="none" stroke="#656d76" stroke-width="1.2" stroke-dasharray="1 2"/><path class="head" d="" fill="#656d76"/></g><g class="wire"><path class="line" d="M 157.41 47 L 169.41 47" fill="none" stroke="#9a6700" stroke-width="1.2"/><path class="head" d="M 169.41 47 L 165.41 49 L 165.41 45 Z" fill="#9a6700"/><text x="163.4073508515196" y="76" fill="#9a6700" font-size="10" text-anchor="middle">key</text></g><g class="wire"><path class="line" d="M 244.96 47 L 256.96 47" fill="none" stroke="#9a6700" stroke-width="1.2"/><path class="head" d="M 256.96 47 L 252.96 49 L 252.96 45 Z" fill="#9a6700"/></g><g class="wire"><path class="line" d="M 211.11 84 L 211.11 144" fill="none" stroke="#a8b1bb" stroke-width="1.2"/><path class="head" d="" fill="#a8b1bb"/></g><g class="wire"><path class="line" d="M 126.56 130 L 126.56 144" fill="none" stroke="#a8b1bb" stroke-width="1.2"/><path class="head" d="" fill="#a8b1bb"/></g><g class="wire"><path class="line" d="M 321.35 130 L 321.35 144" fill="none" stroke="#a8b1bb" stroke-width="1.2"/><path class="head" d="" fill="#a8b1bb"/></g><g class="wire"><path class="line" d="M 508.79 130 L 508.79 144" fill="none" stroke="#a8b1bb" stroke-width="1.2"/><path class="head" d="" fill="#a8b1bb"/></g><g class="wire"><path class="line" d="M 126.56 144 L 508.79 144" fill="none" stroke="#a8b1bb" stroke-width="1.2"/><path class="head" d="" fill="#a8b1bb"/></g><g class="wire"><path class="line" d="M 314 144 L 314 156" fill="none" stroke="#a8b1bb" stroke-width="1.2"/><path class="head" d="M 314 156 L 312 152 L 316 152 Z" fill="#a8b1bb"/></g><g class="wire"><path class="line" d="M 174 178 L 174 187" fill="none" stroke="#a8b1bb" stroke-width="1.2"/><path class="head" d="M 174 187 L 172 183 L 176 183 Z" fill="#a8b1bb"/></g><g class="wire"><path class="line" d="M 174 225 L 174 234" fill="none" stroke="#a8b1bb" stroke-width="1.2"/><path class="head" d="M 174 234 L 172 230 L 176 230 Z" fill="#a8b1bb"/></g><g class="wire"><path class="line" d="M 174 256 L 174 265" fill="none" stroke="#a8b1bb" stroke-width="1.2"/><path class="head" d="M 174 265 L 172 261 L 176 261 Z" fill="#a8b1bb"/></g><g class="wire"><path class="line" d="M 174 287 L 174 296" fill="none" stroke="#a8b1bb" stroke-width="1.2"/><path class="head" d="M 174 296 L 172 292 L 176 292 Z" fill="#a8b1bb"/></g><g class="wire"><path class="line" d="M 174 318 L 174 327" fill="none" stroke="#a8b1bb" stroke-width="1.2"/><path class="head" d="M 174 327 L 172 323 L 176 323 Z" fill="#a8b1bb"/></g><g class="wire"><path class="line" d="M 174 349 L 174 358" fill="none" stroke="#a8b1bb" stroke-width="1.2"/><path class="head" d="M 174 358 L 172 354 L 176 354 Z" fill="#a8b1bb"/></g><g class="wire"><path class="line" d="M 174 380 L 174 389" fill="none" stroke="#a8b1bb" stroke-width="1.2"/><path class="head" d="M 174 389 L 172 385 L 176 385 Z" fill="#a8b1bb"/></g><g class="wire"><path class="line" d="M 454 209 L 454 218" fill="none" stroke="#a8b1bb" stroke-width="1.2"/><path class="head" d="M 454 218 L 452 214 L 456 214 Z" fill="#a8b1bb"/></g><g class="wire"><path class="line" d="M 454 240 L 454 249" fill="none" stroke="#a8b1bb" stroke-width="1.2"/><path class="head" d="M 454 249 L 452 245 L 456 245 Z" fill="#a8b1bb"/></g><g class="wire"><path class="line" d="M 454 271 L 454 280" fill="none" stroke="#a8b1bb" stroke-width="1.2"/><path class="head" d="M 454 280 L 452 276 L 456 276 Z" fill="#a8b1bb"/></g><g class="wire"><path class="line" d="M 454 302 L 454 311" fill="none" stroke="#a8b1bb" stroke-width="1.2"/><path class="head" d="M 454 311 L 452 307 L 456 307 Z" fill="#a8b1bb"/></g><g class="wire"><path class="line" d="M 454 333 L 454 342" fill="none" stroke="#a8b1bb" stroke-width="1.2"/><path class="head" d="M 454 342 L 452 338 L 456 338 Z" fill="#a8b1bb"/></g><g class="wire"><path class="line" d="M 454 364 L 454 373" fill="none" stroke="#a8b1bb" stroke-width="1.2"/><path class="head" d="M 454 373 L 452 369 L 456 369 Z" fill="#a8b1bb"/></g><g class="wire"><path class="line" d="M 174 411 L 174 415.5 Q 174 420 178.5 420 L 308 420 Q 314 420 314 414 L 314 204 Q 314 198 320 198 L 328 198" fill="none" stroke="#cf4520" stroke-width="1.2"/><path class="head" d="M 328 198 L 324 200 L 324 196 Z" fill="#cf4520"/></g><g class="wire"><path class="line" d="M 454 395 L 454 425 Q 454 431 448 431 L 319 431 Q 314 431 314 436 L 314 441" fill="none" stroke="#9a6700" stroke-width="1.2" stroke-dasharray="4 3"/><path class="head" d="M 314 441 L 312 437 L 316 437 Z" fill="#9a6700"/></g><g class="wire"><path class="line" d="M 188 452 L 13.5 452 Q 7.5 452 7.5 446 L 7.5 173 Q 7.5 167 13.5 167 L 48 167" fill="none" stroke="#9a6700" stroke-width="1.2" stroke-dasharray="4 3"/><path class="head" d="M 48 167 L 44 169 L 44 165 Z" fill="#9a6700"/><text x="11.5" y="424" fill="#9a6700" font-size="10" text-anchor="start">feedback</text></g><g class="wire"><path class="line" d="M 239.78 483 L 251.78 483" fill="none" stroke="#656d76" stroke-width="1.2" stroke-dasharray="1 3"/><path class="head" d="M 251.78 483 L 247.78 485 L 247.78 481 Z" fill="#656d76"/></g><g class="wire"><path class="line" d="M 37 182 L 39 182 Q 41 182 41 180 L 41 170.5 Q 41 167 44.5 167 L 48 167" fill="none" stroke="#2f6f9f" stroke-width="1.2" stroke-dasharray="1 3"/><path class="head" d="M 48 167 L 44 169 L 44 165 Z" fill="#2f6f9f"/></g><g class="wire"><path class="line" d="M 591 198 L 580 198" fill="none" stroke="#656d76" stroke-width="1.2" stroke-dasharray="1 2"/><path class="head" d="M 580 198 L 584 196 L 584 200 Z" fill="#656d76"/></g><g class="wire"><path class="line" d="M 591 229 L 580 229" fill="none" stroke="#656d76" stroke-width="1.2" stroke-dasharray="1 2"/><path class="head" d="M 580 229 L 584 227 L 584 231 Z" fill="#656d76"/></g><g class="wire"><path class="line" d="M 37 338 L 48 338" fill="none" stroke="#2f6f9f" stroke-width="1.2" stroke-dasharray="1 3"/><path class="head" d="M 48 338 L 44 340 L 44 336 Z" fill="#2f6f9f"/></g><g class="wire"><path class="line" d="M 451 452 L 440 452" fill="none" stroke="#656d76" stroke-width="1.2" stroke-dasharray="1 2"/><path class="head" d="M 440 452 L 444 450 L 444 454 Z" fill="#656d76"/></g><g class="node"><rect x="48" y="2" width="532" height="82" rx="4" fill="none" stroke="#a8b1bb" stroke-dasharray="3 2"/><text x="57" y="10" fill="#656d76" font-size="10" text-anchor="start">board parts</text></g><g class="node"><rect class="box" x="54" y="30" width="103.40735085151958" height="34" rx="3" fill="#eaeef2" stroke="#a8b1bb" stroke-width="1"/><g class="glyph"><rect x="63" y="39" width="12" height="8" rx="1" fill="none" stroke="#1f2328" stroke-width="0.9"/><path d="M 67 43.6 V 47 M 71 43.6 V 47" stroke="#1f2328" stroke-width="0.9"/><rect x="66.1" y="39" width="1.8" height="4.6" fill="#1f2328"/><rect x="70.1" y="39" width="1.8" height="4.6" fill="#1f2328"/></g><text x="79" y="45.5" fill="#1f2328" font-size="11" text-anchor="start">Toy keyboard</text><rect x="63" y="53" width="85.40735085151958" height="3" fill="#a8b1bb" fill-opacity="0.6"/><rect x="63" y="53" width="51.24441051091175" height="3" fill="#1f2328" fill-opacity="0.5"/></g><g class="node"><rect class="box" x="381.8329621853195" y="30" width="89.53294733939896" height="34" rx="3" fill="#eaeef2" stroke="#a8b1bb" stroke-width="1"/><g class="glyph"><circle cx="395.8329621853195" cy="44" r="4" fill="none" stroke="#1f2328" stroke-width="0.9"/><circle cx="395.8329621853195" cy="44" r="1.3" fill="#1f2328"/><path d="M 402.3329621853195 38 L 398.2329621853195 41.6" stroke="#1f2328" stroke-width="1.1" stroke-linecap="round"/></g><text x="406.8329621853195" y="45.5" fill="#1f2328" font-size="11" text-anchor="start">Toy drums</text><rect x="390.8329621853195" y="53" width="71.53294733939896" height="3" fill="#a8b1bb" fill-opacity="0.6"/><rect x="390.8329621853195" y="53" width="42.919768403639374" height="3" fill="#1f2328" fill-opacity="0.5"/></g><g class="node"><rect class="box" x="169.4073508515196" y="30" width="75.54842951369005" height="34" rx="3" fill="#eaeef2" stroke="#a8b1bb" stroke-width="1"/><g class="glyph"><rect x="180.9073508515196" y="38.5" width="7" height="9" rx="0.8" fill="none" stroke="#656d76" stroke-width="0.9"/><path d="M 178.4073508515196 40 h 2.5 M 187.9073508515196 40 h 2.5 M 178.4073508515196 43 h 2.5 M 187.9073508515196 43 h 2.5 M 178.4073508515196 46 h 2.5 M 187.9073508515196 46 h 2.5" stroke="#656d76" stroke-width="0.9"/><circle cx="182.7073508515196" cy="40.3" r="0.7" fill="#656d76"/></g><text x="194.4073508515196" y="45.5" fill="#656d76" font-size="11" text-anchor="start">FM chip</text><rect x="178.4073508515196" y="53" width="57.54842951369005" height="3" fill="#a8b1bb" fill-opacity="0.6"/></g><g class="node"><rect class="box" x="256.95578036520965" y="30" width="112.87718182010985" height="34" rx="3" fill="#eaeef2" stroke="#a8b1bb" stroke-width="1"/><g class="glyph"><path d="M 265.95578036520965 46 h 2 M 267.95578036520965 42 h 2 M 269.95578036520965 39 h 2 M 271.95578036520965 40 h 2 M 273.95578036520965 44 h 2 M 275.95578036520965 47 h 2 M 267.95578036520965 46 V 42 M 269.95578036520965 42 V 39 M 271.95578036520965 39 V 40 M 273.95578036520965 40 V 44 M 275.95578036520965 44 V 47" fill="none" stroke="#656d76" stroke-width="0.9" stroke-linejoin="miter"/></g><text x="281.95578036520965" y="45.5" fill="#656d76" font-size="11" text-anchor="start">Home keyboard</text><rect x="265.95578036520965" y="53" width="94.87718182010985" height="3" fill="#a8b1bb" fill-opacity="0.6"/></g><g class="node"><rect class="box" x="483.36590952471846" y="30" width="90.63409047528154" height="34" rx="3" fill="#eaeef2" stroke="#a8b1bb" stroke-width="1"/><g class="glyph"><path d="M 494.56590952471845 41.6 L 493.56590952471845 37.8 L 496.9659095247185 39.6 M 502.1659095247185 41.6 L 503.1659095247185 37.8 L 499.76590952471844 39.6" fill="none" stroke="#656d76" stroke-width="0.9" stroke-linejoin="round"/><circle cx="498.36590952471846" cy="44" r="4.6" fill="none" stroke="#656d76" stroke-width="0.9"/><circle cx="496.6659095247185" cy="43.4" r="0.9" fill="#656d76"/><circle cx="500.06590952471845" cy="43.4" r="0.9" fill="#656d76"/></g><text x="508.36590952471846" y="45.5" fill="#656d76" font-size="11" text-anchor="start">Talking pet</text><rect x="492.36590952471846" y="53" width="72.63409047528154" height="3" fill="#a8b1bb" fill-opacity="0.6"/></g><g class="node"><rect class="box" x="48" y="96" width="157.1147233735808" height="34" rx="3" fill="#eaeef2" stroke="#a8b1bb" stroke-width="1"/><g class="glyph"><path d="M 57 111 L 59 106 L 60.7 113 L 62.8 104.6 L 64.7 112 L 66.3 107 L 69 110" fill="none" stroke="#1f2328" stroke-width="1" stroke-linejoin="round"/></g><text x="73" y="111.5" fill="#1f2328" font-size="11" text-anchor="start">Chaos osc</text><rect x="57" y="119" width="139.1147233735808" height="3" fill="#a8b1bb" fill-opacity="0.6"/><rect x="57" y="119" width="69.5573616867904" height="3" fill="#1f2328" fill-opacity="0.5"/></g><g class="node"><rect class="box" x="217.1147233735808" y="96" width="208.4731663362768" height="34" rx="3" fill="#eaeef2" stroke="#a8b1bb" stroke-width="1"/><g class="glyph"><path d="M 226.9147233735808 106.2 a 0.8 0.8 0 1 0 0.01 0 M 229.5147233735808 104.4 a 0.8 0.8 0 1 0 0.01 0 M 228.3147233735808 109.4 a 0.8 0.8 0 1 0 0.01 0 M 231.5147233735808 107.4 a 0.8 0.8 0 1 0 0.01 0 M 230.7147233735808 112.4 a 0.8 0.8 0 1 0 0.01 0 M 233.9147233735808 105.6 a 0.8 0.8 0 1 0 0.01 0 M 234.3147233735808 110.4 a 0.8 0.8 0 1 0 0.01 0 M 237.1147233735808 108 a 0.8 0.8 0 1 0 0.01 0 M 236.5147233735808 112.6 a 0.8 0.8 0 1 0 0.01 0" fill="#1f2328"/></g><text x="242.1147233735808" y="111.5" fill="#1f2328" font-size="11" text-anchor="start">Noise &amp; crackle</text><rect x="226.1147233735808" y="119" width="190.4731663362768" height="3" fill="#a8b1bb" fill-opacity="0.6"/><rect x="226.1147233735808" y="119" width="38.09463326725536" height="3" fill="#1f2328" fill-opacity="0.5"/></g><g class="node"><rect class="box" x="437.58788970985756" y="96" width="142.41211029014235" height="34" rx="3" fill="#eaeef2" stroke="#a8b1bb" stroke-width="1"/><g class="glyph"><path d="M 447.78788970985755 107.3 v 3.4 M 449.78788970985755 105 v 8 M 451.78788970985755 106.5 v 5 M 453.78788970985755 103.8 v 10.4 M 455.78788970985755 106 v 6 M 457.78788970985755 107.6 v 2.8" stroke="#1f2328" stroke-width="1" stroke-linecap="round"/></g><text x="462.58788970985756" y="111.5" fill="#1f2328" font-size="11" text-anchor="start">Sampler</text><rect x="446.58788970985756" y="119" width="124.41211029014235" height="3" fill="#a8b1bb" fill-opacity="0.6"/><rect x="446.58788970985756" y="119" width="87.08847720309964" height="3" fill="#1f2328" fill-opacity="0.5"/></g><g class="node"><rect class="box" x="48" y="156" width="532" height="22" rx="4" fill="#f6f8fa" stroke="#a8b1bb" stroke-width="1"/><text x="314" y="170.85" fill="#1f2328" font-size="11" text-anchor="middle">mix bus</text></g><g class="node"/><g class="node"><rect class="box" x="48" y="234" width="252" height="22" rx="4" fill="#f6f8fa" stroke="#a8b1bb" stroke-width="1"/><text x="174" y="248.85" fill="#1f2328" font-size="11" text-anchor="middle">Ring mod</text></g><g class="node"><rect class="box" x="48" y="265" width="252" height="22" rx="4" fill="#f6f8fa" stroke="#a8b1bb" stroke-width="1"/><text x="174" y="279.85" fill="#1f2328" font-size="11" text-anchor="middle">Crusher</text></g><g class="node"><rect class="box" x="48" y="296" width="252" height="22" rx="4" fill="#f6f8fa" stroke="#a8b1bb" stroke-width="1"/><text x="174" y="310.85" fill="#1f2328" font-size="11" text-anchor="middle">Clipper</text></g><g class="node"><rect class="box" x="48" y="327" width="252" height="22" rx="4" fill="#f6f8fa" stroke="#a8b1bb" stroke-width="1"/><text x="174" y="341.85" fill="#1f2328" font-size="11" text-anchor="middle">Screech filter</text></g><g class="node"><rect class="box" x="48" y="358" width="252" height="22" rx="4" fill="#f6f8fa" stroke="#a8b1bb" stroke-width="1"/><text x="174" y="372.85" fill="#1f2328" font-size="11" text-anchor="middle">Comb</text></g><g class="node"><rect class="box" x="48" y="389" width="252" height="22" rx="4" fill="#f6f8fa" stroke="#a8b1bb" stroke-width="1"/><text x="174" y="403.85" fill="#1f2328" font-size="11" text-anchor="middle">Glitch buffer</text></g><g class="node"><rect class="box" x="328" y="187" width="252" height="22" rx="4" fill="#f6f8fa" stroke="#a8b1bb" stroke-width="1"/><g class="glyph"><rect x="338.5" y="192.5" width="9" height="11" rx="1.2" fill="none" stroke="#1f2328" stroke-width="0.9"/><circle cx="343" cy="195.6" r="1.5" fill="none" stroke="#1f2328" stroke-width="0.9"/><circle cx="343" cy="200.2" r="1.5" fill="#1f2328"/></g><text x="462" y="201.85" fill="#1f2328" font-size="11" text-anchor="middle">Stompbox</text></g><g class="node"><rect class="box" x="328" y="218" width="252" height="22" rx="4" fill="#f6f8fa" stroke="#a8b1bb" stroke-width="1"/><g class="glyph"><circle cx="340.4" cy="230" r="2.6" fill="none" stroke="#1f2328" stroke-width="0.9"/><circle cx="340.4" cy="230" r="0.7" fill="#1f2328"/><circle cx="345.6" cy="230" r="2.6" fill="none" stroke="#1f2328" stroke-width="0.9"/><circle cx="345.6" cy="230" r="0.7" fill="#1f2328"/><path d="M 340.4 226.2 H 345.6" stroke="#1f2328" stroke-width="0.9"/></g><text x="462" y="232.85" fill="#1f2328" font-size="11" text-anchor="middle">Tape delay</text></g><g class="node"><rect class="box" x="328" y="249" width="252" height="22" rx="4" fill="#f6f8fa" stroke="#a8b1bb" stroke-width="1"/><g class="glyph"><path d="M 338.2 264 v -9 M 341.2 264 v -6 M 344.2 264 v -3.6 M 347.2 264 v -2" stroke="#1f2328" stroke-width="1" stroke-linecap="round"/></g><text x="462" y="263.85" fill="#1f2328" font-size="11" text-anchor="middle">Delay pedal</text></g><g class="node"><rect class="box" x="328" y="280" width="252" height="22" rx="4" fill="#f6f8fa" stroke="#a8b1bb" stroke-width="1"/><g class="glyph"><path d="M 337.4 294 h 0.8 q 1.7 -9.5 3.4 0 q 1.7 -9.5 3.4 0 q 1.7 -9.5 3.4 0 h 0.8" fill="none" stroke="#1f2328" stroke-width="0.9"/></g><text x="462" y="294.85" fill="#1f2328" font-size="11" text-anchor="middle">Spring verb</text></g><g class="node"><rect class="box" x="328" y="311" width="252" height="22" rx="4" fill="#f6f8fa" stroke="#a8b1bb" stroke-width="1"/><text x="454" y="325.85" fill="#1f2328" font-size="11" text-anchor="middle">Brownout</text></g><g class="node"><rect class="box" x="328" y="342" width="252" height="22" rx="4" fill="#f6f8fa" stroke="#a8b1bb" stroke-width="1"/><text x="454" y="356.85" fill="#656d76" font-size="11" text-anchor="middle">Tape machine</text></g><g class="node"><rect class="box" x="328" y="373" width="252" height="22" rx="4" fill="#f6f8fa" stroke="#a8b1bb" stroke-width="1"/><text x="454" y="387.85" fill="#1f2328" font-size="11" text-anchor="middle">Output</text></g><g class="node"><rect class="box" x="188" y="441" width="252" height="22" rx="4" fill="#f6f8fa" stroke="#a8b1bb" stroke-width="1"/><text x="314" y="455.85" fill="#1f2328" font-size="11" text-anchor="middle">Feedback bus</text></g><g class="node"><rect class="box" x="157.095" y="472" width="82.68000000000002" height="22" rx="4" fill="#f6f8fa" stroke="#a8b1bb" stroke-width="1"/><text x="198.435" y="486.85" fill="#656d76" font-size="11" text-anchor="middle">Body contact</text></g><g class="node"><rect class="box" x="251.77500000000003" y="472" width="67.5" height="22" rx="4" fill="#f6f8fa" stroke="#a8b1bb" stroke-width="1"/><text x="285.52500000000003" y="486.85" fill="#1f2328" font-size="11" text-anchor="middle">Patch bay</text></g><g class="node"><rect class="box" x="331.27500000000003" y="472" width="44.95" height="22" rx="4" fill="#f6f8fa" stroke="#a8b1bb" stroke-width="1"/><text x="353.75000000000006" y="486.85" fill="#656d76" font-size="11" text-anchor="middle">Wear</text></g><g class="node"><rect class="box" x="388.225" y="472" width="82.68" height="22" rx="4" fill="#f6f8fa" stroke="#a8b1bb" stroke-width="1"/><text x="429.56500000000005" y="486.85" fill="#656d76" font-size="11" text-anchor="middle">Signal order</text></g><g class="node"><rect class="box" x="57" y="210" width="30.2" height="14" rx="3" fill="none" stroke="#a8b1bb" stroke-dasharray="2 2"/><text x="72.1" y="220.5" fill="#656d76" font-size="10" text-anchor="middle">shift</text></g><g class="node"><rect class="box" x="387.099435855019" y="65" width="79.00000000000001" height="14" rx="3" fill="none" stroke="#a8b1bb" stroke-dasharray="2 2"/><text x="426.599435855019" y="75.5" fill="#656d76" font-size="10" text-anchor="middle">no trig patched</text></g><g class="tap"><text x="34" y="185.5" fill="#2f6f9f" font-size="10" text-anchor="end">mic</text></g><g class="tap"><text x="594" y="201.5" fill="#656d76" font-size="10" text-anchor="start">supply</text></g><g class="tap"><text x="594" y="232.5" fill="#656d76" font-size="10" text-anchor="start">supply</text></g><g class="tap"><text x="34" y="341.5" fill="#2f6f9f" font-size="10" text-anchor="end">LFO</text></g><g class="tap"><text x="454" y="455.5" fill="#656d76" font-size="10" text-anchor="start">supply</text></g></svg>
