<?xml version="1.0" encoding="UTF-8"?>
<svg xmlns="http://www.w3.org/2000/svg" viewBox="0 0 334 529" width="334" height="529" font-family="Helvetica, Arial, sans-serif"><g class="wire"><path class="line" d="M 52 20 L 326 20" fill="none" stroke="#656d76" stroke-width="1.2" stroke-dasharray="1 2"/><path class="head" d="" fill="#656d76"/><text x="326" y="16" fill="#656d76" font-size="9" text-anchor="end">shared supply</text></g><g class="wire"><path class="line" d="M 117.5 20 L 117.5 30" fill="none" stroke="#656d76" stroke-width="1.2" stroke-dasharray="1 2"/><path class="head" d="" fill="#656d76"/></g><g class="wire"><path class="line" d="M 260.5 20 L 260.5 30" fill="none" stroke="#656d76" stroke-width="1.2" stroke-dasharray="1 2"/><path class="head" d="" fill="#656d76"/></g><g class="wire"><path class="line" d="M 129.5 64 L 129.5 86" fill="none" stroke="#9a6700" stroke-width="1.2"/><path class="head" d="M 129.5 86 L 127.5 82 L 131.5 82 Z" fill="#9a6700"/><text x="133.5" y="82" fill="#9a6700" font-size="9" text-anchor="start">key</text></g><g class="wire"><path class="line" d="M 133.26 124 L 133.26 184" fill="none" stroke="#a8b1bb" stroke-width="1.2"/><path class="head" d="" fill="#a8b1bb"/></g><g class="wire"><path class="line" d="M 86.63 170 L 86.63 184" fill="none" stroke="#a8b1bb" stroke-width="1.2"/><path class="head" d="" fill="#a8b1bb"/></g><g class="wire"><path class="line" d="M 192.66 170 L 192.66 184" fill="none" stroke="#a8b1bb" stroke-width="1.2"/><path class="head" d="" fill="#a8b1bb"/></g><g class="wire"><path class="line" d="M 295.03 170 L 295.03 184" fill="none" stroke="#a8b1bb" stroke-width="1.2"/><path class="head" d="" fill="#a8b1bb"/></g><g class="wire"><path class="line" d="M 86.63 184 L 295.03 184" fill="none" stroke="#a8b1bb" stroke-width="1.2"/><path class="head" d="" fill="#a8b1bb"/></g><g class="wire"><path class="line" d="M 189 184 L 189 196" fill="none" stroke="#a8b1bb" stroke-width="1.2"/><path class="head" d="M 189 196 L 187 192 L 191 192 Z" fill="#a8b1bb"/></g><g class="wire"><path class="line" d="M 110.5 216 L 110.5 225" fill="none" stroke="#a8b1bb" stroke-width="1.2"/><path class="head" d="M 110.5 225 L 108.5 221 L 112.5 221 Z" fill="#a8b1bb"/></g><g class="wire"><path class="line" d="M 110.5 261 L 110.5 270" fill="none" stroke="#a8b1bb" stroke-width="1.2"/><path class="head" d="M 110.5 270 L 108.5 266 L 112.5 266 Z" fill="#a8b1bb"/></g><g class="wire"><path class="line" d="M 110.5 290 L 110.5 299" fill="none" stroke="#a8b1bb" stroke-width="1.2"/><path class="head" d="M 110.5 299 L 108.5 295 L 112.5 295 Z" fill="#a8b1bb"/></g><g class="wire"><path class="line" d="M 110.5 319 L 110.5 328" fill="none" stroke="#a8b1bb" stroke-width="1.2"/><path class="head" d="M 110.5 328 L 108.5 324 L 112.5 324 Z" fill="#a8b1bb"/></g><g class="wire"><path class="line" d="M 110.5 348 L 110.5 357" fill="none" stroke="#a8b1bb" stroke-width="1.2"/><path class="head" d="M 110.5 357 L 108.5 353 L 112.5 353 Z" fill="#a8b1bb"/></g><g class="wire"><path class="line" d="M 110.5 377 L 110.5 386" fill="none" stroke="#a8b1bb" stroke-width="1.2"/><path class="head" d="M 110.5 386 L 108.5 382 L 112.5 382 Z" fill="#a8b1bb"/></g><g class="wire"><path class="line" d="M 110.5 406 L 110.5 415" fill="none" stroke="#a8b1bb" stroke-width="1.2"/><path class="head" d="M 110.5 415 L 108.5 411 L 112.5 411 Z" fill="#a8b1bb"/></g><g class="wire"><path class="line" d="M 267.5 245 L 267.5 254" fill="none" stroke="#a8b1bb" stroke-width="1.2"/><path class="head" d="M 267.5 254 L 265.5 250 L 269.5 250 Z" fill="#a8b1bb"/></g><g class="wire"><path class="line" d="M 267.5 274 L 267.5 283" fill="none" stroke="#a8b1bb" stroke-width="1.2"/><path class="head" d="M 267.5 283 L 265.5 279 L 269.5 279 Z" fill="#a8b1bb"/></g><g class="wire"><path class="line" d="M 267.5 303 L 267.5 312" fill="none" stroke="#a8b1bb" stroke-width="1.2"/><path class="head" d="M 267.5 312 L 265.5 308 L 269.5 308 Z" fill="#a8b1bb"/></g><g class="wire"><path class="line" d="M 267.5 332 L 267.5 341" fill="none" stroke="#a8b1bb" stroke-width="1.2"/><path class="head" d="M 267.5 341 L 265.5 337 L 269.5 337 Z" fill="#a8b1bb"/></g><g class="wire"><path class="line" d="M 267.5 361 L 267.5 370" fill="none" stroke="#a8b1bb" stroke-width="1.2"/><path class="head" d="M 267.5 370 L 265.5 366 L 269.5 366 Z" fill="#a8b1bb"/></g><g class="wire"><path class="line" d="M 267.5 390 L 267.5 399" fill="none" stroke="#a8b1bb" stroke-width="1.2"/><path class="head" d="M 267.5 399 L 265.5 395 L 269.5 395 Z" fill="#a8b1bb"/></g><g class="wire"><path class="line" d="M 267.5 419 L 267.5 428" fill="none" stroke="#a8b1bb" stroke-width="1.2"/><path class="head" d="M 267.5 428 L 265.5 424 L 269.5 424 Z" fill="#a8b1bb"/></g><g class="wire"><path class="line" d="M 110.5 435 L 110.5 439.5 Q 110.5 444 115 444 L 183 444 Q 189 444 189 438 L 189 241 Q 189 235 195 235 L 203 235" fill="none" stroke="#cf4520" stroke-width="1.2"/><path class="head" d="M 203 235 L 199 237 L 199 233 Z" fill="#cf4520"/></g><g class="wire"><path class="line" d="M 267.5 448 L 267.5 462 Q 267.5 468 261.5 468 L 194 468 Q 189 468 189 473 L 189 478" fill="none" stroke="#9a6700" stroke-width="1.2" stroke-dasharray="4 3"/><path class="head" d="M 189 478 L 187 474 L 191 474 Z" fill="#9a6700"/></g><g class="wire"><path class="line" d="M 124.5 488 L 13.5 488 Q 7.5 488 7.5 482 L 7.5 212 Q 7.5 206 13.5 206 L 46 206" fill="none" stroke="#9a6700" stroke-width="1.2" stroke-dasharray="4 3"/><path class="head" d="M 46 206 L 42 208 L 42 204 Z" fill="#9a6700"/><text x="11.5" y="461" fill="#9a6700" font-size="9" text-anchor="start">feedback</text></g><g class="wire"><path class="line" d="M 162.65 517 L 174.65 517" fill="none" stroke="#656d76" stroke-width="1.2" stroke-dasharray="1 3"/><path class="head" d="M 174.65 517 L 170.65 519 L 170.65 515 Z" fill="#656d76"/></g><g class="wire"><path class="line" d="M 35 221 L 37 221 Q 39 221 39 219 L 39 209.5 Q 39 206 42.5 206 L 46 206" fill="none" stroke="#2f6f9f" stroke-width="1.2" stroke-dasharray="1 3"/><path class="head" d="M 46 206 L 42 208 L 42 204 Z" fill="#2f6f9f"/></g><g class="wire"><path class="line" d="M 35 367 L 46 367" fill="none" stroke="#2f6f9f" stroke-width="1.2" stroke-dasharray="1 3"/><path class="head" d="M 46 367 L 42 369 L 42 365 Z" fill="#2f6f9f"/></g><g class="node"><rect x="46" y="2" width="286" height="122" rx="4" fill="none" stroke="#a8b1bb" stroke-dasharray="3 2"/><text x="55" y="10" fill="#656d76" font-size="9" text-anchor="start">toy board</text></g><g class="node"><rect class="box" x="52" y="30" width="131" height="34" rx="3" fill="#eaeef2" stroke="#a8b1bb" stroke-width="1"/><g class="glyph"><rect x="61" y="39" width="12" height="8" rx="1" fill="none" stroke="#1f2328" stroke-width="0.9"/><path d="M 65 43.6 V 47 M 69 43.6 V 47" stroke="#1f2328" stroke-width="0.9"/><rect x="64.1" y="39" width="1.8" height="4.6" fill="#1f2328"/><rect x="68.1" y="39" width="1.8" height="4.6" fill="#1f2328"/></g><text x="77" y="45.5" fill="#1f2328" font-size="10" text-anchor="start">Toy keyboard</text><rect x="61" y="53" width="113" height="3" fill="#a8b1bb" fill-opacity="0.6"/><rect x="61" y="53" width="67.8" height="3" fill="#1f2328" fill-opacity="0.5"/></g><g class="node"><rect class="box" x="195" y="30" width="131" height="34" rx="3" fill="#eaeef2" stroke="#a8b1bb" stroke-width="1"/><g class="glyph"><circle cx="209" cy="44" r="4" fill="none" stroke="#1f2328" stroke-width="0.9"/><circle cx="209" cy="44" r="1.3" fill="#1f2328"/><path d="M 215.5 38 L 211.4 41.6" stroke="#1f2328" stroke-width="1.1" stroke-linecap="round"/></g><text x="220" y="45.5" fill="#1f2328" font-size="10" text-anchor="start">Toy drums</text><rect x="204" y="53" width="113" height="3" fill="#a8b1bb" fill-opacity="0.6"/><rect x="204" y="53" width="67.8" height="3" fill="#1f2328" fill-opacity="0.5"/></g><g class="node"><rect class="box" x="76" y="86" width="107" height="34" rx="3" fill="#eaeef2" stroke="#a8b1bb" stroke-width="1"/><g class="glyph"><rect x="87.5" y="94.5" width="7" height="9" rx="0.8" fill="none" stroke="#656d76" stroke-width="0.9"/><path d="M 85 96 h 2.5 M 94.5 96 h 2.5 M 85 99 h 2.5 M 94.5 99 h 2.5 M 85 102 h 2.5 M 94.5 102 h 2.5" stroke="#656d76" stroke-width="0.9"/><circle cx="89.3" cy="96.3" r="0.7" fill="#656d76"/></g><text x="101" y="101.5" fill="#656d76" font-size="10" text-anchor="start">FM chip</text><rect x="85" y="109" width="89" height="3" fill="#a8b1bb" fill-opacity="0.6"/></g><g class="node"><rect class="box" x="46" y="136" width="81.25506692160612" height="34" rx="3" fill="#eaeef2" stroke="#a8b1bb" stroke-width="1"/><g class="glyph"><path d="M 55 151 L 57 146 L 58.7 153 L 60.8 144.6 L 62.7 152 L 64.3 147 L 67 150" fill="none" stroke="#1f2328" stroke-width="1" stroke-linejoin="round"/></g><text x="71" y="151.5" fill="#1f2328" font-size="10" text-anchor="start">Chaos osc</text><rect x="55" y="159" width="63.255066921606115" height="3" fill="#a8b1bb" fill-opacity="0.6"/><rect x="55" y="159" width="31.627533460803058" height="3" fill="#1f2328" fill-opacity="0.5"/></g><g class="node"><rect class="box" x="139.2550669216061" y="136" width="106.80382409177821" height="34" rx="3" fill="#eaeef2" stroke="#a8b1bb" stroke-width="1"/><g class="glyph"><path d="M 149.0550669216061 146.2 a 0.8 0.8 0 1 0 0.01 0 M 151.6550669216061 144.4 a 0.8 0.8 0 1 0 0.01 0 M 150.4550669216061 149.4 a 0.8 0.8 0 1 0 0.01 0 M 153.6550669216061 147.4 a 0.8 0.8 0 1 0 0.01 0 M 152.8550669216061 152.4 a 0.8 0.8 0 1 0 0.01 0 M 156.0550669216061 145.6 a 0.8 0.8 0 1 0 0.01 0 M 156.4550669216061 150.4 a 0.8 0.8 0 1 0 0.01 0 M 159.2550669216061 148 a 0.8 0.8 0 1 0 0.01 0 M 158.6550669216061 152.6 a 0.8 0.8 0 1 0 0.01 0" fill="#1f2328"/></g><text x="164.2550669216061" y="151.5" fill="#1f2328" font-size="10" text-anchor="start">Noise &amp; crackle</text><rect x="148.2550669216061" y="159" width="88.80382409177821" height="3" fill="#a8b1bb" fill-opacity="0.6"/><rect x="148.2550669216061" y="159" width="17.760764818355643" height="3" fill="#1f2328" fill-opacity="0.5"/></g><g class="node"><rect class="box" x="258.0588910133843" y="136" width="73.94110898661567" height="34" rx="3" fill="#eaeef2" stroke="#a8b1bb" stroke-width="1"/><g class="glyph"><path d="M 268.2588910133843 147.3 v 3.4 M 270.2588910133843 145 v 8 M 272.2588910133843 146.5 v 5 M 274.2588910133843 143.8 v 10.4 M 276.2588910133843 146 v 6 M 278.2588910133843 147.6 v 2.8" stroke="#1f2328" stroke-width="1" stroke-linecap="round"/></g><text x="283.0588910133843" y="151.5" fill="#1f2328" font-size="10" text-anchor="start">Sampler</text><rect x="267.0588910133843" y="159" width="55.941108986615674" height="3" fill="#a8b1bb" fill-opacity="0.6"/><rect x="267.0588910133843" y="159" width="19.579388145315484" height="3" fill="#1f2328" fill-opacity="0.5"/></g><g class="node"><rect class="box" x="46" y="196" width="286" height="20" rx="4" fill="#f6f8fa" stroke="#a8b1bb" stroke-width="1"/><text x="189" y="209.5" fill="#1f2328" font-size="10" text-anchor="middle">mix bus</text></g><g class="node"><rect class="box" x="46" y="225" width="129" height="36" rx="4" fill="#f6f8fa" stroke="#a8b1bb" stroke-width="1"/><text x="133.365" y="238.5" fill="#1f2328" font-size="10" text-anchor="middle">slot order</text></g><g class="node"><rect class="box" x="46" y="270" width="129" height="20" rx="4" fill="#f6f8fa" stroke="#a8b1bb" stroke-width="1"/><text x="110.5" y="283.5" fill="#1f2328" font-size="10" text-anchor="middle">Ring mod</text></g><g class="node"><rect class="box" x="46" y="299" width="129" height="20" rx="4" fill="#f6f8fa" stroke="#a8b1bb" stroke-width="1"/><text x="110.5" y="312.5" fill="#1f2328" font-size="10" text-anchor="middle">Crusher</text></g><g class="node"><rect class="box" x="46" y="328" width="129" height="20" rx="4" fill="#f6f8fa" stroke="#a8b1bb" stroke-width="1"/><text x="110.5" y="341.5" fill="#1f2328" font-size="10" text-anchor="middle">Clipper</text></g><g class="node"><rect class="box" x="46" y="357" width="129" height="20" rx="4" fill="#f6f8fa" stroke="#a8b1bb" stroke-width="1"/><text x="110.5" y="370.5" fill="#1f2328" font-size="10" text-anchor="middle">Screech filter</text></g><g class="node"><rect class="box" x="46" y="386" width="129" height="20" rx="4" fill="#f6f8fa" stroke="#a8b1bb" stroke-width="1"/><text x="110.5" y="399.5" fill="#1f2328" font-size="10" text-anchor="middle">Comb</text></g><g class="node"><rect class="box" x="46" y="415" width="129" height="20" rx="4" fill="#f6f8fa" stroke="#a8b1bb" stroke-width="1"/><text x="110.5" y="428.5" fill="#1f2328" font-size="10" text-anchor="middle">Glitch buffer</text></g><g class="node"><rect class="box" x="203" y="225" width="129" height="20" rx="4" fill="#f6f8fa" stroke="#a8b1bb" stroke-width="1"/><text x="267.5" y="238.5" fill="#1f2328" font-size="10" text-anchor="middle">Stompbox</text></g><g class="node"><rect class="box" x="203" y="254" width="129" height="20" rx="4" fill="#f6f8fa" stroke="#a8b1bb" stroke-width="1"/><text x="267.5" y="267.5" fill="#1f2328" font-size="10" text-anchor="middle">Tape delay</text></g><g class="node"><rect class="box" x="203" y="283" width="129" height="20" rx="4" fill="#f6f8fa" stroke="#a8b1bb" stroke-width="1"/><text x="267.5" y="296.5" fill="#1f2328" font-size="10" text-anchor="middle">Delay pedal</text></g><g class="node"><rect class="box" x="203" y="312" width="129" height="20" rx="4" fill="#f6f8fa" stroke="#a8b1bb" stroke-width="1"/><text x="267.5" y="325.5" fill="#1f2328" font-size="10" text-anchor="middle">Spring verb</text></g><g class="node"><rect class="box" x="203" y="341" width="129" height="20" rx="4" fill="#f6f8fa" stroke="#a8b1bb" stroke-width="1"/><text x="267.5" y="354.5" fill="#1f2328" font-size="10" text-anchor="middle">Brownout</text></g><g class="node"><rect class="box" x="203" y="370" width="129" height="20" rx="4" fill="#f6f8fa" stroke="#a8b1bb" stroke-width="1"/><text x="267.5" y="383.5" fill="#656d76" font-size="10" text-anchor="middle">Tape machine</text></g><g class="node"><rect class="box" x="203" y="399" width="129" height="20" rx="4" fill="#f6f8fa" stroke="#a8b1bb" stroke-width="1"/><text x="267.5" y="412.5" fill="#1f2328" font-size="10" text-anchor="middle">Output</text></g><g class="node"><rect class="box" x="203" y="428" width="129" height="20" rx="4" fill="#f6f8fa" stroke="#a8b1bb" stroke-width="1"/><text x="267.5" y="441.5" fill="#656d76" font-size="10" text-anchor="middle">dc block → clip → limit</text></g><g class="node"><rect class="box" x="124.5" y="478" width="129" height="20" rx="4" fill="#f6f8fa" stroke="#a8b1bb" stroke-width="1"/><text x="189" y="491.5" fill="#1f2328" font-size="10" text-anchor="middle">Feedback bus</text></g><g class="node"><rect class="box" x="85.85" y="507" width="76.80000000000001" height="20" rx="4" fill="#f6f8fa" stroke="#a8b1bb" stroke-width="1"/><text x="124.25" y="520.5" fill="#656d76" font-size="10" text-anchor="middle">Body contact</text></g><g class="node"><rect class="box" x="174.65" y="507" width="63" height="20" rx="4" fill="#f6f8fa" stroke="#a8b1bb" stroke-width="1"/><text x="206.15" y="520.5" fill="#1f2328" font-size="10" text-anchor="middle">Patch bay</text></g><g class="node"><rect class="box" x="249.65" y="507" width="42.5" height="20" rx="4" fill="#f6f8fa" stroke="#a8b1bb" stroke-width="1"/><text x="270.9" y="520.5" fill="#656d76" font-size="10" text-anchor="middle">Wear</text></g><g class="node"><rect class="box" x="99.25" y="246" width="28.18" height="14" rx="3" fill="none" stroke="#a8b1bb" stroke-dasharray="2 2"/><text x="113.34" y="256.15" fill="#656d76" font-size="9" text-anchor="middle">shift</text></g><g class="tap"><text x="55" y="256.15" fill="#656d76" font-size="9" text-anchor="start">in no slot</text></g><g class="node"><rect class="box" x="55" y="228" width="36.730000000000004" height="14" rx="3" fill="none" stroke="#a8b1bb" stroke-dasharray="2 2"/><text x="73.36500000000001" y="238.15" fill="#656d76" font-size="9" text-anchor="middle">solder</text></g><g class="tap"><text x="260.5" y="77.15" fill="#656d76" font-size="9" text-anchor="middle">no trig patched</text></g><g class="tap"><text x="32" y="224.15" fill="#2f6f9f" font-size="9" text-anchor="end">mic</text></g><g class="tap"><text x="32" y="370.15" fill="#2f6f9f" font-size="9" text-anchor="end">LFO</text></g></svg>
