<?xml version="1.0" encoding="UTF-8"?>
<svg xmlns="http://www.w3.org/2000/svg" viewBox="0 0 501 496" width="501" height="496" font-family="Helvetica, Arial, sans-serif"><g class="wire"><path class="line" d="M 54 20 L 449 20" fill="none" stroke="#8b949e" stroke-width="1.2" stroke-dasharray="1 2"/><path class="head" d="" fill="#8b949e"/><text x="449" y="16" fill="#8b949e" font-size="10" text-anchor="end">shared supply</text></g><g class="wire"><path class="line" d="M 105.69 20 L 105.69 30" fill="none" stroke="#8b949e" stroke-width="1.2" stroke-dasharray="1 2"/><path class="head" d="" fill="#8b949e"/></g><g class="wire"><path class="line" d="M 301.65 20 L 301.65 30" fill="none" stroke="#8b949e" stroke-width="1.2" stroke-dasharray="1 2"/><path class="head" d="" fill="#8b949e"/></g><g class="wire"><path class="line" d="M 207.13 20 L 207.13 30" fill="none" stroke="#8b949e" stroke-width="1.2" stroke-dasharray="1 2"/><path class="head" d="" fill="#8b949e"/></g><g class="wire"><path class="line" d="M 403.7 20 L 403.7 30" fill="none" stroke="#8b949e" stroke-width="1.2" stroke-dasharray="1 2"/><path class="head" d="" fill="#8b949e"/></g><g class="wire"><path class="line" d="M 157.37 47 L 169.37 47" fill="none" stroke="#d29922" stroke-width="1.2"/><path class="head" d="M 169.37 47 L 165.37 49 L 165.37 45 Z" fill="#d29922"/><text x="163.37198606271778" y="76" fill="#d29922" font-size="10" text-anchor="middle">key</text></g><g class="wire"><path class="line" d="M 172.45 84 L 172.45 144" fill="none" stroke="#4d5560" stroke-width="1.2"/><path class="head" d="" fill="#4d5560"/></g><g class="wire"><path class="line" d="M 107.23 130 L 107.23 144" fill="none" stroke="#4d5560" stroke-width="1.2"/><path class="head" d="" fill="#4d5560"/></g><g class="wire"><path class="line" d="M 257.04 130 L 257.04 144" fill="none" stroke="#4d5560" stroke-width="1.2"/><path class="head" d="" fill="#4d5560"/></g><g class="wire"><path class="line" d="M 401.32 130 L 401.32 144" fill="none" stroke="#4d5560" stroke-width="1.2"/><path class="head" d="" fill="#4d5560"/></g><g class="wire"><path class="line" d="M 107.23 144 L 401.32 144" fill="none" stroke="#4d5560" stroke-width="1.2"/><path class="head" d="" fill="#4d5560"/></g><g class="wire"><path class="line" d="M 251.5 144 L 251.5 156" fill="none" stroke="#4d5560" stroke-width="1.2"/><path class="head" d="M 251.5 156 L 249.5 152 L 253.5 152 Z" fill="#4d5560"/></g><g class="wire"><path class="line" d="M 142.75 178 L 142.75 187" fill="none" stroke="#4d5560" stroke-width="1.2"/><path class="head" d="M 142.75 187 L 140.75 183 L 144.75 183 Z" fill="#4d5560"/></g><g class="wire"><path class="line" d="M 142.75 225 L 142.75 234" fill="none" stroke="#4d5560" stroke-width="1.2"/><path class="head" d="M 142.75 234 L 140.75 230 L 144.75 230 Z" fill="#4d5560"/></g><g class="wire"><path class="line" d="M 142.75 256 L 142.75 265" fill="none" stroke="#4d5560" stroke-width="1.2"/><path class="head" d="M 142.75 265 L 140.75 261 L 144.75 261 Z" fill="#4d5560"/></g><g class="wire"><path class="line" d="M 142.75 287 L 142.75 296" fill="none" stroke="#4d5560" stroke-width="1.2"/><path class="head" d="M 142.75 296 L 140.75 292 L 144.75 292 Z" fill="#4d5560"/></g><g class="wire"><path class="line" d="M 142.75 318 L 142.75 327" fill="none" stroke="#4d5560" stroke-width="1.2"/><path class="head" d="M 142.75 327 L 140.75 323 L 144.75 323 Z" fill="#4d5560"/></g><g class="wire"><path class="line" d="M 142.75 349 L 142.75 358" fill="none" stroke="#4d5560" stroke-width="1.2"/><path class="head" d="M 142.75 358 L 140.75 354 L 144.75 354 Z" fill="#4d5560"/></g><g class="wire"><path class="line" d="M 142.75 380 L 142.75 389" fill="none" stroke="#4d5560" stroke-width="1.2"/><path class="head" d="M 142.75 389 L 140.75 385 L 144.75 385 Z" fill="#4d5560"/></g><g class="wire"><path class="line" d="M 360.25 209 L 360.25 218" fill="none" stroke="#4d5560" stroke-width="1.2"/><path class="head" d="M 360.25 218 L 358.25 214 L 362.25 214 Z" fill="#4d5560"/></g><g class="wire"><path class="line" d="M 360.25 240 L 360.25 249" fill="none" stroke="#4d5560" stroke-width="1.2"/><path class="head" d="M 360.25 249 L 358.25 245 L 362.25 245 Z" fill="#4d5560"/></g><g class="wire"><path class="line" d="M 360.25 271 L 360.25 280" fill="none" stroke="#4d5560" stroke-width="1.2"/><path class="head" d="M 360.25 280 L 358.25 276 L 362.25 276 Z" fill="#4d5560"/></g><g class="wire"><path class="line" d="M 360.25 302 L 360.25 311" fill="none" stroke="#4d5560" stroke-width="1.2"/><path class="head" d="M 360.25 311 L 358.25 307 L 362.25 307 Z" fill="#4d5560"/></g><g class="wire"><path class="line" d="M 360.25 333 L 360.25 342" fill="none" stroke="#4d5560" stroke-width="1.2"/><path class="head" d="M 360.25 342 L 358.25 338 L 362.25 338 Z" fill="#4d5560"/></g><g class="wire"><path class="line" d="M 360.25 364 L 360.25 373" fill="none" stroke="#4d5560" stroke-width="1.2"/><path class="head" d="M 360.25 373 L 358.25 369 L 362.25 369 Z" fill="#4d5560"/></g><g class="wire"><path class="line" d="M 142.75 411 L 142.75 415.5 Q 142.75 420 147.25 420 L 245.5 420 Q 251.5 420 251.5 414 L 251.5 204 Q 251.5 198 257.5 198 L 265.5 198" fill="none" stroke="#ff5d3b" stroke-width="1.2"/><path class="head" d="M 265.5 198 L 261.5 200 L 261.5 196 Z" fill="#ff5d3b"/></g><g class="wire"><path class="line" d="M 360.25 395 L 360.25 425 Q 360.25 431 354.25 431 L 256.5 431 Q 251.5 431 251.5 436 L 251.5 441" fill="none" stroke="#d29922" stroke-width="1.2" stroke-dasharray="4 3"/><path class="head" d="M 251.5 441 L 249.5 437 L 253.5 437 Z" fill="#d29922"/></g><g class="wire"><path class="line" d="M 156.75 452 L 13.5 452 Q 7.5 452 7.5 446 L 7.5 173 Q 7.5 167 13.5 167 L 48 167" fill="none" stroke="#d29922" stroke-width="1.2" stroke-dasharray="4 3"/><path class="head" d="M 48 167 L 44 169 L 44 165 Z" fill="#d29922"/><text x="11.5" y="424" fill="#d29922" font-size="10" text-anchor="start">feedback</text></g><g class="wire"><path class="line" d="M 177.28 483 L 189.28 483" fill="none" stroke="#8b949e" stroke-width="1.2" stroke-dasharray="1 3"/><path class="head" d="M 189.28 483 L 185.28 485 L 185.28 481 Z" fill="#8b949e"/></g><g class="wire"><path class="line" d="M 37 182 L 39 182 Q 41 182 41 180 L 41 170.5 Q 41 167 44.5 167 L 48 167" fill="none" stroke="#5ea9d8" stroke-width="1.2" stroke-dasharray="1 3"/><path class="head" d="M 48 167 L 44 169 L 44 165 Z" fill="#5ea9d8"/></g><g class="wire"><path class="line" d="M 466 198 L 455 198" fill="none" stroke="#8b949e" stroke-width="1.2" stroke-dasharray="1 2"/><path class="head" d="M 455 198 L 459 196 L 459 200 Z" fill="#8b949e"/></g><g class="wire"><path class="line" d="M 466 229 L 455 229" fill="none" stroke="#8b949e" stroke-width="1.2" stroke-dasharray="1 2"/><path class="head" d="M 455 229 L 459 227 L 459 231 Z" fill="#8b949e"/></g><g class="wire"><path class="line" d="M 37 338 L 48 338" fill="none" stroke="#5ea9d8" stroke-width="1.2" stroke-dasharray="1 3"/><path class="head" d="M 48 338 L 44 340 L 44 336 Z" fill="#5ea9d8"/></g><g class="wire"><path class="line" d="M 357.25 452 L 346.25 452" fill="none" stroke="#8b949e" stroke-width="1.2" stroke-dasharray="1 2"/><path class="head" d="M 346.25 452 L 350.25 450 L 350.25 454 Z" fill="#8b949e"/></g><g class="node"><rect x="48" y="2" width="407" height="82" rx="4" fill="none" stroke="#4d5560" stroke-dasharray="3 2"/><text x="57" y="10" fill="#8b949e" font-size="10" text-anchor="start">board parts</text></g><g class="node"><rect class="box" x="54" y="30" width="103.37198606271777" height="34" rx="3" fill="#1c222b" stroke="#4d5560" stroke-width="1"/><g class="glyph"><rect x="63" y="39" width="12" height="8" rx="1" fill="none" stroke="#e6edf3" stroke-width="0.9"/><path d="M 67 43.6 V 47 M 71 43.6 V 47" stroke="#e6edf3" stroke-width="0.9"/><rect x="66.1" y="39" width="1.8" height="4.6" fill="#e6edf3"/><rect x="70.1" y="39" width="1.8" height="4.6" fill="#e6edf3"/></g><text x="79" y="45.5" fill="#e6edf3" font-size="11" text-anchor="start">Toy keyboard</text><rect x="63" y="53" width="85.37198606271777" height="3" fill="#4d5560" fill-opacity="0.6"/><rect x="63" y="53" width="51.223191637630656" height="3" fill="#e6edf3" fill-opacity="0.5"/></g><g class="node"><rect class="box" x="256.8945783972125" y="30" width="89.5023275261324" height="34" rx="3" fill="#1c222b" stroke="#4d5560" stroke-width="1"/><g class="glyph"><circle cx="270.8945783972125" cy="44" r="4" fill="none" stroke="#e6edf3" stroke-width="0.9"/><circle cx="270.8945783972125" cy="44" r="1.3" fill="#e6edf3"/><path d="M 277.3945783972125 38 L 273.2945783972125 41.6" stroke="#e6edf3" stroke-width="1.1" stroke-linecap="round"/></g><text x="281.8945783972125" y="45.5" fill="#e6edf3" font-size="11" text-anchor="start">Toy drums</text><rect x="265.8945783972125" y="53" width="71.5023275261324" height="3" fill="#4d5560" fill-opacity="0.6"/><rect x="265.8945783972125" y="53" width="42.901396515679444" height="3" fill="#e6edf3" fill-opacity="0.5"/></g><g class="node"><rect class="box" x="169.37198606271778" y="30" width="75.52259233449476" height="34" rx="3" fill="#1c222b" stroke="#4d5560" stroke-width="1"/><g class="glyph"><rect x="180.87198606271778" y="38.5" width="7" height="9" rx="0.8" fill="none" stroke="#8b949e" stroke-width="0.9"/><path d="M 178.37198606271778 40 h 2.5 M 187.87198606271778 40 h 2.5 M 178.37198606271778 43 h 2.5 M 187.87198606271778 43 h 2.5 M 178.37198606271778 46 h 2.5 M 187.87198606271778 46 h 2.5" stroke="#8b949e" stroke-width="0.9"/><circle cx="182.6719860627178" cy="40.3" r="0.7" fill="#8b949e"/></g><text x="194.37198606271778" y="45.5" fill="#8b949e" font-size="11" text-anchor="start">FM chip</text><rect x="178.37198606271778" y="53" width="57.52259233449476" height="3" fill="#4d5560" fill-opacity="0.6"/></g><g class="node"><rect class="box" x="358.3969059233449" y="30" width="90.60309407665504" height="34" rx="3" fill="#1c222b" stroke="#4d5560" stroke-width="1"/><g class="glyph"><path d="M 369.5969059233449 41.6 L 368.5969059233449 37.8 L 371.9969059233449 39.6 M 377.1969059233449 41.6 L 378.1969059233449 37.8 L 374.79690592334487 39.6" fill="none" stroke="#8b949e" stroke-width="0.9" stroke-linejoin="round"/><circle cx="373.3969059233449" cy="44" r="4.6" fill="none" stroke="#8b949e" stroke-width="0.9"/><circle cx="371.6969059233449" cy="43.4" r="0.9" fill="#8b949e"/><circle cx="375.0969059233449" cy="43.4" r="0.9" fill="#8b949e"/></g><text x="383.3969059233449" y="45.5" fill="#8b949e" font-size="11" text-anchor="start">Talking pet</text><rect x="367.3969059233449" y="53" width="72.60309407665504" height="3" fill="#4d5560" fill-opacity="0.6"/></g><g class="node"><rect class="box" x="48" y="96" width="118.4546044332312" height="34" rx="3" fill="#1c222b" stroke="#4d5560" stroke-width="1"/><g class="glyph"><path d="M 57 111 L 59 106 L 60.7 113 L 62.8 104.6 L 64.7 112 L 66.3 107 L 69 110" fill="none" stroke="#e6edf3" stroke-width="1" stroke-linejoin="round"/></g><text x="73" y="111.5" fill="#e6edf3" font-size="11" text-anchor="start">Chaos osc</text><rect x="57" y="119" width="100.4546044332312" height="3" fill="#4d5560" fill-opacity="0.6"/><rect x="57" y="119" width="50.2273022166156" height="3" fill="#e6edf3" fill-opacity="0.5"/></g><g class="node"><rect class="box" x="178.4546044332312" y="96" width="157.1756352495945" height="34" rx="3" fill="#1c222b" stroke="#4d5560" stroke-width="1"/><g class="glyph"><path d="M 188.2546044332312 106.2 a 0.8 0.8 0 1 0 0.01 0 M 190.8546044332312 104.4 a 0.8 0.8 0 1 0 0.01 0 M 189.65460443323119 109.4 a 0.8 0.8 0 1 0 0.01 0 M 192.8546044332312 107.4 a 0.8 0.8 0 1 0 0.01 0 M 192.0546044332312 112.4 a 0.8 0.8 0 1 0 0.01 0 M 195.2546044332312 105.6 a 0.8 0.8 0 1 0 0.01 0 M 195.65460443323119 110.4 a 0.8 0.8 0 1 0 0.01 0 M 198.4546044332312 108 a 0.8 0.8 0 1 0 0.01 0 M 197.8546044332312 112.6 a 0.8 0.8 0 1 0 0.01 0" fill="#e6edf3"/></g><text x="203.4546044332312" y="111.5" fill="#e6edf3" font-size="11" text-anchor="start">Noise &amp; crackle</text><rect x="187.4546044332312" y="119" width="139.1756352495945" height="3" fill="#4d5560" fill-opacity="0.6"/><rect x="187.4546044332312" y="119" width="27.835127049918903" height="3" fill="#e6edf3" fill-opacity="0.5"/></g><g class="node"><rect class="box" x="347.63023968282573" y="96" width="107.36976031717425" height="34" rx="3" fill="#1c222b" stroke="#4d5560" stroke-width="1"/><g class="glyph"><path d="M 357.8302396828257 107.3 v 3.4 M 359.8302396828257 105 v 8 M 361.8302396828257 106.5 v 5 M 363.8302396828257 103.8 v 10.4 M 365.8302396828257 106 v 6 M 367.8302396828257 107.6 v 2.8" stroke="#e6edf3" stroke-width="1" stroke-linecap="round"/></g><text x="372.63023968282573" y="111.5" fill="#e6edf3" font-size="11" text-anchor="start">Sampler</text><rect x="356.63023968282573" y="119" width="89.36976031717425" height="3" fill="#4d5560" fill-opacity="0.6"/><rect x="356.63023968282573" y="119" width="31.27941611101099" height="3" fill="#e6edf3" fill-opacity="0.5"/></g><g class="node"><rect class="box" x="48" y="156" width="407" height="22" rx="4" fill="#161b22" stroke="#4d5560" stroke-width="1"/><text x="251.5" y="170.85" fill="#e6edf3" font-size="11" text-anchor="middle">mix bus</text></g><g class="node"/><g class="node"><rect class="box" x="48" y="234" width="189.5" height="22" rx="4" fill="#161b22" stroke="#4d5560" stroke-width="1"/><text x="142.75" y="248.85" fill="#e6edf3" font-size="11" text-anchor="middle">Ring mod</text></g><g class="node"><rect class="box" x="48" y="265" width="189.5" height="22" rx="4" fill="#161b22" stroke="#4d5560" stroke-width="1"/><text x="142.75" y="279.85" fill="#e6edf3" font-size="11" text-anchor="middle">Crusher</text></g><g class="node"><rect class="box" x="48" y="296" width="189.5" height="22" rx="4" fill="#161b22" stroke="#4d5560" stroke-width="1"/><text x="142.75" y="310.85" fill="#e6edf3" font-size="11" text-anchor="middle">Clipper</text></g><g class="node"><rect class="box" x="48" y="327" width="189.5" height="22" rx="4" fill="#161b22" stroke="#4d5560" stroke-width="1"/><text x="142.75" y="341.85" fill="#e6edf3" font-size="11" text-anchor="middle">Screech filter</text></g><g class="node"><rect class="box" x="48" y="358" width="189.5" height="22" rx="4" fill="#161b22" stroke="#4d5560" stroke-width="1"/><text x="142.75" y="372.85" fill="#e6edf3" font-size="11" text-anchor="middle">Comb</text></g><g class="node"><rect class="box" x="48" y="389" width="189.5" height="22" rx="4" fill="#161b22" stroke="#4d5560" stroke-width="1"/><text x="142.75" y="403.85" fill="#e6edf3" font-size="11" text-anchor="middle">Glitch buffer</text></g><g class="node"><rect class="box" x="265.5" y="187" width="189.5" height="22" rx="4" fill="#161b22" stroke="#4d5560" stroke-width="1"/><g class="glyph"><rect x="276" y="192.5" width="9" height="11" rx="1.2" fill="none" stroke="#e6edf3" stroke-width="0.9"/><circle cx="280.5" cy="195.6" r="1.5" fill="none" stroke="#e6edf3" stroke-width="0.9"/><circle cx="280.5" cy="200.2" r="1.5" fill="#e6edf3"/></g><text x="368.25" y="201.85" fill="#e6edf3" font-size="11" text-anchor="middle">Stompbox</text></g><g class="node"><rect class="box" x="265.5" y="218" width="189.5" height="22" rx="4" fill="#161b22" stroke="#4d5560" stroke-width="1"/><g class="glyph"><circle cx="277.9" cy="230" r="2.6" fill="none" stroke="#e6edf3" stroke-width="0.9"/><circle cx="277.9" cy="230" r="0.7" fill="#e6edf3"/><circle cx="283.1" cy="230" r="2.6" fill="none" stroke="#e6edf3" stroke-width="0.9"/><circle cx="283.1" cy="230" r="0.7" fill="#e6edf3"/><path d="M 277.9 226.2 H 283.1" stroke="#e6edf3" stroke-width="0.9"/></g><text x="368.25" y="232.85" fill="#e6edf3" font-size="11" text-anchor="middle">Tape delay</text></g><g class="node"><rect class="box" x="265.5" y="249" width="189.5" height="22" rx="4" fill="#161b22" stroke="#4d5560" stroke-width="1"/><g class="glyph"><path d="M 275.7 264 v -9 M 278.7 264 v -6 M 281.7 264 v -3.6 M 284.7 264 v -2" stroke="#e6edf3" stroke-width="1" stroke-linecap="round"/></g><text x="368.25" y="263.85" fill="#e6edf3" font-size="11" text-anchor="middle">Delay pedal</text></g><g class="node"><rect class="box" x="265.5" y="280" width="189.5" height="22" rx="4" fill="#161b22" stroke="#4d5560" stroke-width="1"/><g class="glyph"><path d="M 274.9 294 h 0.8 q 1.7 -9.5 3.4 0 q 1.7 -9.5 3.4 0 q 1.7 -9.5 3.4 0 h 0.8" fill="none" stroke="#e6edf3" stroke-width="0.9"/></g><text x="368.25" y="294.85" fill="#e6edf3" font-size="11" text-anchor="middle">Spring verb</text></g><g class="node"><rect class="box" x="265.5" y="311" width="189.5" height="22" rx="4" fill="#161b22" stroke="#4d5560" stroke-width="1"/><text x="360.25" y="325.85" fill="#e6edf3" font-size="11" text-anchor="middle">Brownout</text></g><g class="node"><rect class="box" x="265.5" y="342" width="189.5" height="22" rx="4" fill="#161b22" stroke="#4d5560" stroke-width="1"/><text x="360.25" y="356.85" fill="#8b949e" font-size="11" text-anchor="middle">Tape machine</text></g><g class="node"><rect class="box" x="265.5" y="373" width="189.5" height="22" rx="4" fill="#161b22" stroke="#4d5560" stroke-width="1"/><text x="360.25" y="387.85" fill="#e6edf3" font-size="11" text-anchor="middle">Output</text></g><g class="node"><rect class="box" x="156.75" y="441" width="189.5" height="22" rx="4" fill="#161b22" stroke="#4d5560" stroke-width="1"/><text x="251.5" y="455.85" fill="#e6edf3" font-size="11" text-anchor="middle">Feedback bus</text></g><g class="node"><rect class="box" x="94.595" y="472" width="82.68000000000002" height="22" rx="4" fill="#161b22" stroke="#4d5560" stroke-width="1"/><text x="135.935" y="486.85" fill="#8b949e" font-size="11" text-anchor="middle">Body contact</text></g><g class="node"><rect class="box" x="189.27500000000003" y="472" width="67.5" height="22" rx="4" fill="#161b22" stroke="#4d5560" stroke-width="1"/><text x="223.02500000000003" y="486.85" fill="#e6edf3" font-size="11" text-anchor="middle">Patch bay</text></g><g class="node"><rect class="box" x="268.77500000000003" y="472" width="44.95" height="22" rx="4" fill="#161b22" stroke="#4d5560" stroke-width="1"/><text x="291.25000000000006" y="486.85" fill="#8b949e" font-size="11" text-anchor="middle">Wear</text></g><g class="node"><rect class="box" x="325.725" y="472" width="82.68" height="22" rx="4" fill="#161b22" stroke="#4d5560" stroke-width="1"/><text x="367.06500000000005" y="486.85" fill="#8b949e" font-size="11" text-anchor="middle">Signal order</text></g><g class="node"><rect class="box" x="57" y="210" width="30.2" height="14" rx="3" fill="none" stroke="#4d5560" stroke-dasharray="2 2"/><text x="72.1" y="220.5" fill="#8b949e" font-size="10" text-anchor="middle">shift</text></g><g class="node"><rect class="box" x="262.1457421602787" y="65" width="79.00000000000001" height="14" rx="3" fill="none" stroke="#4d5560" stroke-dasharray="2 2"/><text x="301.6457421602787" y="75.5" fill="#8b949e" font-size="10" text-anchor="middle">no trig patched</text></g><g class="tap"><text x="34" y="185.5" fill="#5ea9d8" font-size="10" text-anchor="end">mic</text></g><g class="tap"><text x="469" y="201.5" fill="#8b949e" font-size="10" text-anchor="start">supply</text></g><g class="tap"><text x="469" y="232.5" fill="#8b949e" font-size="10" text-anchor="start">supply</text></g><g class="tap"><text x="34" y="341.5" fill="#5ea9d8" font-size="10" text-anchor="end">LFO</text></g><g class="tap"><text x="360.25" y="455.5" fill="#8b949e" font-size="10" text-anchor="start">supply</text></g></svg>
